<svg width="32" height="11" viewBox="0 0 32 11" fill="none" xmlns="http://www.w3.org/2000/svg">
<path fill-rule="evenodd" clip-rule="evenodd" d="M16.4709 3.67817C16.453 5.08581 17.7254 5.87134 18.6838 6.33838C19.6686 6.81763 19.9994 7.12493 19.9956 7.55341C19.9881 8.20931 19.21 8.49869 18.4818 8.50995C17.2113 8.52967 16.4727 8.16698 15.8855 7.89262L15.4279 10.0341C16.017 10.3057 17.108 10.5425 18.2394 10.5528C20.8949 10.5528 22.6323 9.24197 22.6418 7.2095C22.6521 4.6301 19.0738 4.48725 19.0982 3.33426C19.1067 2.98472 19.4403 2.61163 20.1713 2.51674C20.5331 2.46886 21.532 2.43217 22.6643 2.95366L23.1087 0.88176C22.4998 0.659972 21.7171 0.447571 20.7427 0.447571C18.2431 0.447571 16.485 1.77627 16.4709 3.67817ZM27.3796 0.626098C26.8947 0.626098 26.4859 0.908985 26.3037 1.3431L22.5102 10.4006H25.1638L25.6919 8.94125H28.9347L29.241 10.4006H31.5799L29.5389 0.626098H27.3796ZM27.7507 3.26659L28.5165 6.93694H26.4192L27.7507 3.26659ZM13.2535 0.626098L11.1618 10.4006H13.6904L15.7812 0.626098H13.2535ZM9.51266 0.626098L6.88061 7.27897L5.81595 1.62215C5.69101 0.990738 5.19768 0.626098 4.64982 0.626098H0.347122L0.286962 0.909924C1.17028 1.10159 2.17385 1.41077 2.78179 1.74153C3.15386 1.94353 3.2601 2.12018 3.38222 2.60037L5.39874 10.4006H8.07123L12.1682 0.626098H9.51266Z" fill="#1434CB"/>
</svg>
